<?xml version="1.0" encoding="UTF-8"?>
<!DOCTYPE svg PUBLIC "-//W3C//DTD SVG 1.1//EN" "http://www.w3.org/Graphics/SVG/1.1/DTD/svg11.dtd">
<svg xmlns="http://www.w3.org/2000/svg" version="1.1" width="4500px" height="4500px" style="shape-rendering:geometricPrecision; text-rendering:geometricPrecision; image-rendering:optimizeQuality; fill-rule:evenodd; clip-rule:evenodd" xmlns:xlink="http://www.w3.org/1999/xlink">
<g><path style="opacity:0.992" fill="#4d2f11" d="M 2237.5,923.5 C 2238.55,923.351 2239.55,923.517 2240.5,924C 2276.01,959.347 2311.35,994.847 2346.5,1030.5C 2329.85,1031.54 2315.69,1037.87 2304,1049.5C 2299.32,1056.53 2295.99,1064.2 2294,1072.5C 2292.88,1090.97 2292.38,1109.47 2292.5,1128C 2293.23,1184.5 2293.57,1241 2293.5,1297.5C 2307,1297.88 2319.33,1294.38 2330.5,1287C 2336.25,1281.67 2340.08,1275.17 2342,1267.5C 2343.14,1206.86 2343.98,1146.19 2344.5,1085.5C 2381.16,1120.16 2417.5,1155.16 2453.5,1190.5C 2440.9,1201.59 2427.57,1211.76 2413.5,1221C 2406.69,1226.12 2403.19,1232.95 2403,1241.5C 2404.4,1283.16 2397.07,1323.16 2381,1361.5C 2373.09,1376.21 2361.25,1386.38 2345.5,1392C 2328.63,1397.94 2311.29,1401.77 2293.5,1403.5C 2293.5,1453.17 2293.5,1502.83 2293.5,1552.5C 2451.17,1552.67 2608.83,1552.5 2766.5,1552C 2799.19,1518.99 2827.69,1482.83 2852,1443.5C 2856.27,1435.29 2860.27,1426.96 2864,1418.5C 2865.65,1414.58 2866.65,1410.58 2867,1406.5C 2847.33,1410.91 2827.83,1410.08 2808.5,1404C 2777.95,1392.26 2748.29,1378.59 2719.5,1363C 2669.99,1334.75 2621.66,1304.75 2574.5,1273C 2552.68,1255.72 2545.35,1233.55 2552.5,1206.5C 2639.59,1262.37 2732.59,1306.54 2831.5,1339C 2865.07,1347.64 2898.73,1355.81 2932.5,1363.5C 2924.65,1374.85 2914.98,1384.35 2903.5,1392C 2964.18,1416.45 3024.68,1441.28 3085,1466.5C 3086.64,1505.92 3075.97,1541.58 3053,1573.5C 3033.48,1599.86 3009.98,1621.86 2982.5,1639.5C 3010,1658.16 3033.83,1680.83 3054,1707.5C 3076.26,1739.3 3086.6,1774.63 3085,1813.5C 3014.35,1842.66 2943.51,1871.33 2872.5,1899.5C 2873.68,1844.03 2853.68,1797.86 2812.5,1761C 2798.24,1748.2 2782.9,1736.87 2766.5,1727C 2671.16,1726.17 2575.83,1726.33 2480.5,1727.5C 2524.7,1810.44 2534.86,1897.44 2511,1988.5C 2503.04,2017.72 2491.21,2045.22 2475.5,2071C 2643.5,2071.33 2811.5,2071.67 2979.5,2072C 3013.88,2100.71 3048.54,2129.04 3083.5,2157C 3084.29,2160.08 3084.79,2163.24 3085,2166.5C 3085.33,2192.5 3085.67,2218.5 3086,2244.5C 3121.26,2273.55 3156.43,2302.71 3191.5,2332C 3156.62,2361.21 3121.46,2390.04 3086,2418.5C 3085.67,2476.5 3085.33,2534.5 3085,2592.5C 3050.12,2621.71 3014.96,2650.54 2979.5,2679C 2750.17,2679.5 2520.83,2679.67 2291.5,2679.5C 2291.67,2759.5 2291.5,2839.5 2291,2919.5C 2278.17,2932.33 2265.33,2945.17 2252.5,2958C 2399.83,2958.33 2547.17,2958.67 2694.5,2959C 2749.38,2964.67 2789.55,2991.84 2815,3040.5C 2837.6,3095.33 2830.26,3145.66 2793,3191.5C 2754.66,3231.28 2708.16,3246.45 2653.5,3237C 2607.2,3224.7 2580.7,3194.86 2574,3147.5C 2571.09,3095.81 2592.92,3058.97 2639.5,3037C 2659.62,3028.99 2680.28,3026.99 2701.5,3031C 2738.56,3043.06 2756.39,3068.56 2755,3107.5C 2750.58,3136.25 2734.75,3155.75 2707.5,3166C 2694.57,3170.12 2681.57,3170.45 2668.5,3167C 2646.41,3154.84 2640.91,3137.34 2652,3114.5C 2661.86,3101.16 2675.03,3095.99 2691.5,3099C 2701.19,3101.35 2708.53,3106.85 2713.5,3115.5C 2722.48,3094.95 2717.15,3079.12 2697.5,3068C 2665.39,3061.3 2639.89,3071.46 2621,3098.5C 2606.06,3126.35 2607.39,3153.35 2625,3179.5C 2640.48,3196.06 2659.65,3204.39 2682.5,3204.5C 2733.27,3201.57 2767.77,3176.57 2786,3129.5C 2798.21,3076.77 2781.37,3036.27 2735.5,3008C 2721.45,3000.43 2706.45,2996.09 2690.5,2995C 2532.17,2994.33 2373.83,2994.33 2215.5,2995C 2205,3005.5 2194.5,3016 2184,3026.5C 2183.5,3015.84 2183.33,3005.17 2183.5,2994.5C 2048.83,2994.33 1914.17,2994.5 1779.5,2995C 1730.55,3000.7 1698.38,3026.87 1683,3073.5C 1673.45,3124.89 1690.95,3164.05 1735.5,3191C 1760.76,3204.08 1787.09,3207.08 1814.5,3200C 1847.87,3186.45 1862.7,3161.62 1859,3125.5C 1853.17,3095.01 1835.34,3075.51 1805.5,3067C 1786.48,3060.96 1770.65,3065.46 1758,3080.5C 1751.11,3092.32 1750.77,3104.32 1757,3116.5C 1765.76,3101.23 1778.92,3095.4 1796.5,3099C 1816.94,3106.37 1825.77,3120.87 1823,3142.5C 1817.3,3160.93 1804.8,3169.93 1785.5,3169.5C 1742.66,3165.66 1718.99,3142.33 1714.5,3099.5C 1717.32,3064.68 1735.32,3041.85 1768.5,3031C 1819.42,3023.71 1858.25,3041.88 1885,3085.5C 1897.62,3112.58 1899.95,3140.58 1892,3169.5C 1878.24,3206.91 1851.74,3229.74 1812.5,3238C 1754.51,3245.79 1707.01,3227.29 1670,3182.5C 1642.02,3142.92 1635.35,3099.92 1650,3053.5C 1673.26,2996.93 1715.43,2965.43 1776.5,2959C 1912.17,2958.5 2047.83,2958.33 2183.5,2958.5C 2183.32,2865.5 2183.65,2772.5 2184.5,2679.5C 2158.16,2679.33 2131.83,2679.5 2105.5,2680C 2118.68,2702.19 2135.18,2721.69 2155,2738.5C 2155.67,2777.5 2155.67,2816.5 2155,2855.5C 2108.12,2835.3 2069.46,2804.64 2039,2763.5C 2020.43,2737.71 2004.93,2710.04 1992.5,2680.5C 1896.17,2679.33 1799.84,2679.17 1703.5,2680C 1672.18,2699.32 1646.01,2724.15 1625,2754.5C 1606.97,2784.62 1598.3,2817.29 1599,2852.5C 1528.52,2823.67 1458.02,2794.84 1387.5,2766C 1385.48,2732.92 1392.98,2702.09 1410,2673.5C 1431.17,2640.33 1458.33,2613.17 1491.5,2592C 1466.88,2575.72 1445.05,2556.22 1426,2533.5C 1401.31,2502.94 1388.14,2467.94 1386.5,2428.5C 1386.67,2425.17 1386.83,2421.83 1387,2418.5C 1457.86,2389.6 1528.69,2360.6 1599.5,2331.5C 1598.9,2386.79 1618.9,2432.96 1659.5,2470C 1673.65,2482.49 1688.65,2493.82 1704.5,2504C 1788.5,2504.5 1872.5,2504.67 1956.5,2504.5C 1953.43,2422.67 1970.1,2345.17 2006.5,2272C 2046.5,2271.17 2086.5,2271.33 2126.5,2272.5C 2096.04,2312.32 2075.87,2356.99 2066,2406.5C 2059.32,2438.83 2056.49,2471.5 2057.5,2504.5C 2099.83,2504.5 2142.17,2504.5 2184.5,2504.5C 2184.51,2418.5 2184.85,2332.5 2185.5,2246.5C 1954.5,2246.67 1723.5,2246.5 1492.5,2246C 1457.06,2217.53 1421.89,2188.69 1387,2159.5C 1386.67,2101.83 1386.33,2044.17 1386,1986.5C 1350.89,1957.37 1315.72,1928.37 1280.5,1899.5C 1315.35,1870.15 1350.52,1841.15 1386,1812.5C 1386.17,1754.5 1386.67,1696.5 1387.5,1638.5C 1422.35,1609.81 1457.35,1581.31 1492.5,1553C 1679.83,1552.83 1867.17,1552.33 2054.5,1551.5C 2043.38,1518.72 2036.54,1485.05 2034,1450.5C 2032.08,1391.51 2031.08,1332.51 2031,1273.5C 2053.72,1335.33 2075.06,1397.67 2095,1460.5C 2107,1494.35 2124.5,1524.85 2147.5,1552C 2160.16,1552.5 2172.83,1552.67 2185.5,1552.5C 2185.5,1502.83 2185.5,1453.17 2185.5,1403.5C 2168.44,1401.9 2151.77,1398.4 2135.5,1393C 2115.16,1385.92 2100.99,1372.42 2093,1352.5C 2079.84,1316.68 2073.84,1279.68 2075,1241.5C 2074.81,1232.95 2071.31,1226.12 2064.5,1221C 2050.43,1211.76 2037.1,1201.59 2024.5,1190.5C 2060.5,1155.16 2096.84,1120.16 2133.5,1085.5C 2134.02,1146.19 2134.86,1206.86 2136,1267.5C 2140.59,1284.05 2151.42,1293.55 2168.5,1296C 2173.79,1296.98 2179.13,1297.48 2184.5,1297.5C 2184.43,1241 2184.77,1184.5 2185.5,1128C 2185.62,1109.47 2185.12,1090.97 2184,1072.5C 2180.72,1053.89 2170.22,1041.39 2152.5,1035C 2145.59,1033.07 2138.59,1031.57 2131.5,1030.5C 2166.85,994.812 2202.19,959.146 2237.5,923.5 Z M 1599.5,1726.5 C 1794.83,1726.5 1990.17,1726.5 2185.5,1726.5C 2185.5,1841.5 2185.5,1956.5 2185.5,2071.5C 1990.17,2071.5 1794.83,2071.5 1599.5,2071.5C 1599.5,1956.5 1599.5,1841.5 1599.5,1726.5 Z M 2293.5,1726.5 C 2313.5,1726.33 2333.5,1726.5 2353.5,1727C 2388.9,1762.3 2410.74,1804.8 2419,1854.5C 2429.89,1927.27 2412.56,1992.27 2367,2049.5C 2359.8,2057.03 2352.3,2064.2 2344.5,2071C 2326.84,2071.5 2309.17,2071.67 2291.5,2071.5C 2292.22,1956.5 2292.89,1841.5 2293.5,1726.5 Z M 2291.5,2246.5 C 2484.83,2246.5 2678.17,2246.5 2871.5,2246.5C 2872.49,2332.47 2872.83,2418.47 2872.5,2504.5C 2678.83,2504.5 2485.17,2504.5 2291.5,2504.5C 2291.5,2418.5 2291.5,2332.5 2291.5,2246.5 Z M 2161.5,3033.5 C 2171.7,3033.19 2177.54,3038.19 2179,3048.5C 2180.83,3058.86 2179.16,3068.52 2174,3077.5C 2170.16,3080.9 2166.16,3081.23 2162,3078.5C 2161.5,3063.5 2161.33,3048.5 2161.5,3033.5 Z M 2042.5,3046.5 C 2043.49,3049.71 2044.49,3053.05 2045.5,3056.5C 2043.95,3057.45 2042.29,3057.79 2040.5,3057.5C 2040.66,3053.71 2041.33,3050.04 2042.5,3046.5 Z M 2243.5,3046.5 C 2244.49,3049.71 2245.49,3053.05 2246.5,3056.5C 2244.95,3057.45 2243.29,3057.79 2241.5,3057.5C 2241.66,3053.71 2242.33,3050.04 2243.5,3046.5 Z M 2346.5,3046.5 C 2347.49,3049.71 2348.49,3053.05 2349.5,3056.5C 2347.95,3057.45 2346.29,3057.79 2344.5,3057.5C 2344.66,3053.71 2345.33,3050.04 2346.5,3046.5 Z"/></g>
<g><path style="opacity:0.982" fill="#4d2f11" d="M 1887.5,1112.5 C 1928.76,1110.54 1960.26,1126.87 1982,1161.5C 1985.25,1167.59 1987.92,1173.92 1990,1180.5C 2000.49,1221.46 2010.82,1262.46 2021,1303.5C 2021.67,1321.83 2021.67,1340.17 2021,1358.5C 2001.74,1318.32 1982.74,1277.98 1964,1237.5C 1938.36,1179.93 1894.52,1158.43 1832.5,1173C 1722.85,1220.99 1609.19,1256.32 1491.5,1279C 1438.98,1287.71 1393.81,1273.55 1356,1236.5C 1333.01,1210.2 1324.68,1179.86 1331,1145.5C 1359.39,1174.78 1393.89,1192.61 1434.5,1199C 1471.53,1204.8 1508.53,1204.47 1545.5,1198C 1659.56,1169.15 1773.56,1140.65 1887.5,1112.5 Z"/></g>
<g><path style="opacity:0.983" fill="#4d2f11" d="M 2564.5,1112.5 C 2575.27,1112.07 2585.94,1112.91 2596.5,1115C 2706.5,1142.67 2816.5,1170.33 2926.5,1198C 2971.14,1206.2 3015.48,1204.87 3059.5,1194C 3091.27,1185.37 3118.44,1169.21 3141,1145.5C 3147.9,1187.48 3135.07,1221.98 3102.5,1249C 3068.26,1275.41 3029.59,1285.74 2986.5,1280C 2867.75,1257.65 2753.08,1222.32 2642.5,1174C 2577.27,1157.53 2531.77,1180.03 2506,1241.5C 2487.94,1280.62 2469.61,1319.62 2451,1358.5C 2450.33,1340.17 2450.33,1321.83 2451,1303.5C 2461.71,1259.33 2473.04,1215.33 2485,1171.5C 2500.98,1137.6 2527.48,1117.93 2564.5,1112.5 Z"/></g>
<g><path style="opacity:0.98" fill="#4d2f11" d="M 1862.5,1188.5 C 1880.51,1188.33 1897.84,1191.5 1914.5,1198C 1851.89,1232.64 1787.89,1264.64 1722.5,1294C 1673.05,1316.04 1622.05,1333.71 1569.5,1347C 1550.88,1351.23 1532.04,1354.07 1513,1355.5C 1466.37,1352.63 1434.87,1329.46 1418.5,1286C 1433.81,1287.77 1449.14,1289.77 1464.5,1292C 1498.09,1295.25 1531.43,1293.58 1564.5,1287C 1619.45,1274.02 1673.12,1257.02 1725.5,1236C 1758.83,1222.33 1792.17,1208.67 1825.5,1195C 1837.76,1191.56 1850.09,1189.4 1862.5,1188.5 Z"/></g>
<g><path style="opacity:0.98" fill="#4d2f11" d="M 2600.5,1188.5 C 2617.22,1188.53 2633.55,1191.03 2649.5,1196C 2717.89,1226.47 2787.89,1252.8 2859.5,1275C 2887.02,1283.2 2915.02,1289.04 2943.5,1292.5C 2961.15,1293.6 2978.82,1293.76 2996.5,1293C 3015.25,1291.04 3033.92,1288.54 3052.5,1285.5C 3043.94,1315.23 3025.27,1336.07 2996.5,1348C 2976.31,1355.49 2955.64,1357.15 2934.5,1353C 2877.85,1342.78 2823.18,1326.12 2770.5,1303C 2697.9,1271.37 2626.9,1236.53 2557.5,1198.5C 2561.72,1195.81 2566.38,1193.98 2571.5,1193C 2581.21,1190.82 2590.88,1189.32 2600.5,1188.5 Z"/></g>
<g><path style="opacity:0.98" fill="#4d2f11" d="M 1916.5,1206.5 C 1917.5,1206.41 1918.33,1206.75 1919,1207.5C 1925.72,1231.32 1920.22,1251.82 1902.5,1269C 1848.67,1306.09 1793.01,1340.42 1735.5,1372C 1712.17,1384.22 1688.17,1394.89 1663.5,1404C 1614.04,1417.29 1572.87,1404.45 1540,1365.5C 1539.52,1364.55 1539.35,1363.55 1539.5,1362.5C 1596.43,1352.6 1651.77,1337.1 1705.5,1316C 1769.3,1290.43 1830.63,1260.1 1889.5,1225C 1898.91,1219.3 1907.91,1213.14 1916.5,1206.5 Z"/></g>
<g><path style="opacity:0.978" fill="#4d2f11" d="M 1927.5,1256.5 C 1928.75,1256.58 1929.58,1257.24 1930,1258.5C 1935.89,1281.16 1931.89,1301.82 1918,1320.5C 1862.62,1371.56 1802.45,1416.06 1737.5,1454C 1723.98,1460.98 1709.64,1463.31 1694.5,1461C 1668.75,1455.29 1647.08,1442.62 1629.5,1423C 1693.21,1407.14 1752.54,1381.47 1807.5,1346C 1849.66,1319 1889.66,1289.17 1927.5,1256.5 Z"/></g>
<g><path style="opacity:0.978" fill="#4d2f11" d="M 2542.5,1256.5 C 2591.63,1297.78 2643.96,1334.61 2699.5,1367C 2744.75,1391.75 2792.42,1410.42 2842.5,1423C 2824.92,1442.62 2803.25,1455.29 2777.5,1461C 2761.52,1463.6 2746.52,1460.94 2732.5,1453C 2667.76,1415.2 2607.93,1370.7 2553,1319.5C 2539.37,1300.19 2535.87,1279.19 2542.5,1256.5 Z"/></g>
<g><path style="opacity:0.97" fill="#4d2f11" d="M 1939.5,1306.5 C 1940.5,1306.41 1941.33,1306.75 1942,1307.5C 1949.22,1332.19 1945.22,1354.86 1930,1375.5C 1894.08,1411.44 1855.25,1443.61 1813.5,1472C 1786.58,1487.19 1758.58,1489.52 1729.5,1479C 1726.34,1477.59 1723.34,1475.92 1720.5,1474C 1741.52,1462.16 1762.85,1450.82 1784.5,1440C 1821.04,1416.71 1855.04,1390.04 1886.5,1360C 1904.42,1342.24 1922.09,1324.41 1939.5,1306.5 Z"/></g>
<g><path style="opacity:0.972" fill="#4d2f11" d="M 2529.5,1306.5 C 2552.96,1328.42 2576.29,1350.59 2599.5,1373C 2626.46,1397.3 2655.12,1419.3 2685.5,1439C 2707.5,1450.67 2729.5,1462.33 2751.5,1474C 2732.12,1484.9 2711.45,1488.23 2689.5,1484C 2678.45,1481.76 2668.11,1477.76 2658.5,1472C 2616.75,1443.61 2577.92,1411.44 2542,1375.5C 2526.72,1354.59 2522.55,1331.59 2529.5,1306.5 Z"/></g>
<g><path style="opacity:0.984" fill="#4d2f11" d="M 2319.5,2767.5 C 2364.04,2807.62 2415.37,2836.12 2473.5,2853C 2499.58,2860.1 2525.91,2866.1 2552.5,2871C 2537.34,2883.83 2521.34,2895.49 2504.5,2906C 2475.85,2918.57 2446.18,2921.57 2415.5,2915C 2386.67,2908.84 2359.67,2898.17 2334.5,2883C 2329.38,2879.55 2324.55,2875.71 2320,2871.5C 2319.5,2836.83 2319.33,2802.17 2319.5,2767.5 Z"/></g>
<g><path style="opacity:0.794" fill="#4d2f11" d="M 2092.5,3027.5 C 2093.93,3027.88 2094.76,3028.88 2095,3030.5C 2098.51,3044.21 2102.18,3057.88 2106,3071.5C 2108.79,3056.55 2112.45,3041.88 2117,3027.5C 2118.11,3045.51 2119.45,3063.51 2121,3081.5C 2121.64,3082.65 2122.48,3083.65 2123.5,3084.5C 2120.17,3085.83 2116.83,3085.83 2113.5,3084.5C 2115.06,3081.78 2115.73,3078.78 2115.5,3075.5C 2114.93,3067.17 2114.43,3058.84 2114,3050.5C 2111.35,3062.23 2108.52,3073.9 2105.5,3085.5C 2101.24,3073.45 2097.74,3061.12 2095,3048.5C 2094.07,3059.83 2093.74,3071.16 2094,3082.5C 2094.69,3083.03 2095.19,3083.69 2095.5,3084.5C 2092.83,3085.83 2090.17,3085.83 2087.5,3084.5C 2088.93,3082.78 2089.77,3080.78 2090,3078.5C 2091.27,3061.52 2092.1,3044.52 2092.5,3027.5 Z"/></g>
<g><path style="opacity:0.794" fill="#4d2f11" d="M 2373.5,3027.5 C 2374.93,3027.88 2375.76,3028.88 2376,3030.5C 2379.51,3044.21 2383.18,3057.88 2387,3071.5C 2389.79,3056.55 2393.45,3041.88 2398,3027.5C 2399.11,3045.51 2400.45,3063.51 2402,3081.5C 2402.64,3082.65 2403.48,3083.65 2404.5,3084.5C 2401.17,3085.83 2397.83,3085.83 2394.5,3084.5C 2396.06,3081.78 2396.73,3078.78 2396.5,3075.5C 2395.93,3067.17 2395.43,3058.84 2395,3050.5C 2392.35,3062.23 2389.52,3073.9 2386.5,3085.5C 2382.24,3073.45 2378.74,3061.12 2376,3048.5C 2375.07,3059.83 2374.74,3071.16 2375,3082.5C 2375.69,3083.03 2376.19,3083.69 2376.5,3084.5C 2373.83,3085.83 2371.17,3085.83 2368.5,3084.5C 2369.93,3082.78 2370.77,3080.78 2371,3078.5C 2372.27,3061.52 2373.1,3044.52 2373.5,3027.5 Z"/></g>
<g><path style="opacity:0.723" fill="#4d2f11" d="M 1937.5,3028.5 C 1938.8,3029.85 1938.63,3031.18 1937,3032.5C 1936.33,3049.17 1936.33,3065.83 1937,3082.5C 1937.69,3083.03 1938.19,3083.69 1938.5,3084.5C 1935.5,3085.83 1932.5,3085.83 1929.5,3084.5C 1929.81,3083.69 1930.31,3083.03 1931,3082.5C 1931.67,3065.83 1931.67,3049.17 1931,3032.5C 1930.31,3031.97 1929.81,3031.31 1929.5,3030.5C 1932.31,3029.83 1934.97,3029.17 1937.5,3028.5 Z"/></g>
<g><path style="opacity:0.789" fill="#4d2f11" d="M 1945.5,3028.5 C 1950.52,3028.75 1955.52,3029.25 1960.5,3030C 1962,3030.83 1963.17,3032 1964,3033.5C 1966.35,3039.46 1966.68,3045.46 1965,3051.5C 1964.12,3054.1 1962.62,3056.27 1960.5,3058C 1965.07,3067.82 1970.41,3077.16 1976.5,3086C 1976,3086.5 1975.5,3087 1975,3087.5C 1973.58,3086.54 1972.08,3085.71 1970.5,3085C 1964.28,3076.07 1958.95,3066.57 1954.5,3056.5C 1961.47,3051.41 1963.31,3044.75 1960,3036.5C 1958,3034.25 1955.5,3033.25 1952.5,3033.5C 1953.8,3048.17 1953.8,3062.83 1952.5,3077.5C 1952.92,3080.11 1953.92,3082.44 1955.5,3084.5C 1952.17,3085.83 1948.83,3085.83 1945.5,3084.5C 1946.52,3083.65 1947.36,3082.65 1948,3081.5C 1948.67,3065.5 1948.67,3049.5 1948,3033.5C 1946.91,3031.92 1946.07,3030.26 1945.5,3028.5 Z"/></g>
<g><path style="opacity:0.723" fill="#4d2f11" d="M 1988.5,3028.5 C 1989.8,3029.85 1989.63,3031.18 1988,3032.5C 1987.33,3049.17 1987.33,3065.83 1988,3082.5C 1988.69,3083.03 1989.19,3083.69 1989.5,3084.5C 1986.5,3085.83 1983.5,3085.83 1980.5,3084.5C 1980.81,3083.69 1981.31,3083.03 1982,3082.5C 1982.67,3065.83 1982.67,3049.17 1982,3032.5C 1981.31,3031.97 1980.81,3031.31 1980.5,3030.5C 1983.31,3029.83 1985.97,3029.17 1988.5,3028.5 Z"/></g>
<g><path style="opacity:0.789" fill="#4d2f11" d="M 1996.5,3028.5 C 2001.52,3028.75 2006.52,3029.25 2011.5,3030C 2013,3030.83 2014.17,3032 2015,3033.5C 2017.35,3039.46 2017.68,3045.46 2016,3051.5C 2015.12,3054.1 2013.62,3056.27 2011.5,3058C 2016.07,3067.82 2021.41,3077.16 2027.5,3086C 2027,3086.5 2026.5,3087 2026,3087.5C 2024.58,3086.54 2023.08,3085.71 2021.5,3085C 2015.28,3076.07 2009.95,3066.57 2005.5,3056.5C 2012.47,3051.41 2014.31,3044.75 2011,3036.5C 2009,3034.25 2006.5,3033.25 2003.5,3033.5C 2004.8,3048.17 2004.8,3062.83 2003.5,3077.5C 2003.92,3080.11 2004.92,3082.44 2006.5,3084.5C 2003.17,3085.83 1999.83,3085.83 1996.5,3084.5C 1997.52,3083.65 1998.36,3082.65 1999,3081.5C 1999.67,3065.5 1999.67,3049.5 1999,3033.5C 1997.91,3031.92 1997.07,3030.26 1996.5,3028.5 Z"/></g>
<g><path style="opacity:0.783" fill="#4d2f11" d="M 2042.5,3028.5 C 2044.05,3029.23 2044.88,3030.56 2045,3032.5C 2047.95,3048.25 2051.28,3063.92 2055,3079.5C 2055.67,3081.52 2056.84,3083.18 2058.5,3084.5C 2055.5,3085.83 2052.5,3085.83 2049.5,3084.5C 2049.99,3083.55 2050.32,3082.55 2050.5,3081.5C 2049,3075.19 2047.67,3068.85 2046.5,3062.5C 2043.83,3062.5 2041.17,3062.5 2038.5,3062.5C 2037.64,3068.93 2036.31,3075.26 2034.5,3081.5C 2035.17,3082.5 2035.83,3083.5 2036.5,3084.5C 2033.83,3085.83 2031.17,3085.83 2028.5,3084.5C 2029.86,3082.97 2031.03,3081.3 2032,3079.5C 2035.82,3062.55 2039.32,3045.55 2042.5,3028.5 Z M 2042.5,3046.5 C 2041.33,3050.04 2040.66,3053.71 2040.5,3057.5C 2042.29,3057.79 2043.95,3057.45 2045.5,3056.5C 2044.49,3053.05 2043.49,3049.71 2042.5,3046.5 Z"/></g>
<g><path style="opacity:0.814" fill="#4d2f11" d="M 2061.5,3028.5 C 2064.49,3029 2067.49,3029.33 2070.5,3029.5C 2068.89,3032.22 2068.06,3035.22 2068,3038.5C 2067.24,3051.85 2067.41,3065.18 2068.5,3078.5C 2068.33,3084.86 2066.83,3090.86 2064,3096.5C 2062.43,3098.56 2060.6,3099.23 2058.5,3098.5C 2060.81,3095.54 2062.31,3092.21 2063,3088.5C 2063.67,3069.83 2063.67,3051.17 2063,3032.5C 2060.99,3031.43 2060.49,3030.1 2061.5,3028.5 Z"/></g>
<g><path style="opacity:0.857" fill="#4d2f11" d="M 2128.5,3028.5 C 2134.51,3029.6 2140.51,3029.76 2146.5,3029C 2146.96,3029.41 2147.29,3029.91 2147.5,3030.5C 2146.77,3033.11 2146.27,3035.78 2146,3038.5C 2145.6,3037.13 2145.1,3035.79 2144.5,3034.5C 2141.57,3033.52 2138.57,3033.18 2135.5,3033.5C 2135.5,3040.5 2135.5,3047.5 2135.5,3054.5C 2139.18,3055.27 2141.68,3053.94 2143,3050.5C 2143.67,3054.5 2143.67,3058.5 2143,3062.5C 2141.68,3059.06 2139.18,3057.73 2135.5,3058.5C 2135.5,3065.83 2135.5,3073.17 2135.5,3080.5C 2139.18,3080.67 2142.85,3080.5 2146.5,3080C 2147.46,3078.58 2148.29,3077.08 2149,3075.5C 2149.78,3078.76 2149.62,3081.93 2148.5,3085C 2141.81,3085.83 2135.14,3085.66 2128.5,3084.5C 2130.02,3082.45 2130.85,3080.12 2131,3077.5C 2131.67,3064.17 2131.67,3050.83 2131,3037.5C 2130.61,3034.35 2129.77,3031.35 2128.5,3028.5 Z"/></g>
<g><path style="opacity:0.831" fill="#4d2f11" d="M 2154.5,3028.5 C 2160.5,3028.91 2166.5,3029.41 2172.5,3030C 2178.25,3033.1 2181.75,3037.93 2183,3044.5C 2185.78,3056.67 2184.45,3068.34 2179,3079.5C 2176.9,3082.47 2174.07,3084.3 2170.5,3085C 2165.14,3085.83 2159.8,3085.66 2154.5,3084.5C 2155.81,3083.09 2156.64,3081.42 2157,3079.5C 2157.67,3064.5 2157.67,3049.5 2157,3034.5C 2156.34,3032.37 2155.51,3030.37 2154.5,3028.5 Z M 2161.5,3033.5 C 2161.33,3048.5 2161.5,3063.5 2162,3078.5C 2166.16,3081.23 2170.16,3080.9 2174,3077.5C 2179.16,3068.52 2180.83,3058.86 2179,3048.5C 2177.54,3038.19 2171.7,3033.19 2161.5,3033.5 Z"/></g>
<g><path style="opacity:0.723" fill="#4d2f11" d="M 2195.5,3028.5 C 2196.8,3029.85 2196.63,3031.18 2195,3032.5C 2194.33,3049.17 2194.33,3065.83 2195,3082.5C 2195.69,3083.03 2196.19,3083.69 2196.5,3084.5C 2193.5,3085.83 2190.5,3085.83 2187.5,3084.5C 2187.81,3083.69 2188.31,3083.03 2189,3082.5C 2189.67,3065.83 2189.67,3049.17 2189,3032.5C 2188.31,3031.97 2187.81,3031.31 2187.5,3030.5C 2190.31,3029.83 2192.97,3029.17 2195.5,3028.5 Z"/></g>
<g><path style="opacity:0.814" fill="#4d2f11" d="M 2212.5,3028.5 C 2223.73,3026.99 2228.23,3031.65 2226,3042.5C 2220.55,3031.47 2214.22,3030.8 2207,3040.5C 2201.9,3053.16 2202.56,3065.49 2209,3077.5C 2212.02,3080.95 2215.52,3081.79 2219.5,3080C 2222.4,3077.6 2224.73,3074.77 2226.5,3071.5C 2228.22,3082.94 2223.22,3087.44 2211.5,3085C 2204.6,3081.72 2200.77,3076.22 2200,3068.5C 2199.12,3059.77 2199.46,3051.1 2201,3042.5C 2202.75,3035.94 2206.58,3031.28 2212.5,3028.5 Z"/></g>
<g><path style="opacity:0.783" fill="#4d2f11" d="M 2243.5,3028.5 C 2245.05,3029.23 2245.88,3030.56 2246,3032.5C 2248.95,3048.25 2252.28,3063.92 2256,3079.5C 2256.67,3081.52 2257.84,3083.18 2259.5,3084.5C 2256.5,3085.83 2253.5,3085.83 2250.5,3084.5C 2250.99,3083.55 2251.32,3082.55 2251.5,3081.5C 2250,3075.19 2248.67,3068.85 2247.5,3062.5C 2244.83,3062.5 2242.17,3062.5 2239.5,3062.5C 2238.64,3068.93 2237.31,3075.26 2235.5,3081.5C 2236.17,3082.5 2236.83,3083.5 2237.5,3084.5C 2234.83,3085.83 2232.17,3085.83 2229.5,3084.5C 2230.86,3082.97 2232.03,3081.3 2233,3079.5C 2236.82,3062.55 2240.32,3045.55 2243.5,3028.5 Z M 2243.5,3046.5 C 2242.33,3050.04 2241.66,3053.71 2241.5,3057.5C 2243.29,3057.79 2244.95,3057.45 2246.5,3056.5C 2245.49,3053.05 2244.49,3049.71 2243.5,3046.5 Z"/></g>
<g><path style="opacity:0.839" fill="#4d2f11" d="M 2265.5,3028.5 C 2269.01,3028.31 2272.35,3028.97 2275.5,3030.5C 2274.76,3031.29 2273.92,3031.95 2273,3032.5C 2272.5,3048.5 2272.33,3064.5 2272.5,3080.5C 2276.18,3080.67 2279.85,3080.5 2283.5,3080C 2284.46,3078.58 2285.29,3077.08 2286,3075.5C 2286.78,3078.76 2286.62,3081.93 2285.5,3085C 2278.81,3085.83 2272.14,3085.66 2265.5,3084.5C 2267.02,3082.45 2267.85,3080.12 2268,3077.5C 2268.67,3064.17 2268.67,3050.83 2268,3037.5C 2267.61,3034.35 2266.77,3031.35 2265.5,3028.5 Z"/></g>
<g><path style="opacity:0.814" fill="#4d2f11" d="M 2315.5,3028.5 C 2326.73,3026.99 2331.23,3031.65 2329,3042.5C 2323.55,3031.47 2317.22,3030.8 2310,3040.5C 2304.9,3053.16 2305.56,3065.49 2312,3077.5C 2315.02,3080.95 2318.52,3081.79 2322.5,3080C 2325.4,3077.6 2327.73,3074.77 2329.5,3071.5C 2331.22,3082.94 2326.22,3087.44 2314.5,3085C 2307.6,3081.72 2303.77,3076.22 2303,3068.5C 2302.12,3059.77 2302.46,3051.1 2304,3042.5C 2305.75,3035.94 2309.58,3031.28 2315.5,3028.5 Z"/></g>
<g><path style="opacity:0.783" fill="#4d2f11" d="M 2346.5,3028.5 C 2348.05,3029.23 2348.88,3030.56 2349,3032.5C 2351.95,3048.25 2355.28,3063.92 2359,3079.5C 2359.67,3081.52 2360.84,3083.18 2362.5,3084.5C 2359.5,3085.83 2356.5,3085.83 2353.5,3084.5C 2353.99,3083.55 2354.32,3082.55 2354.5,3081.5C 2353,3075.19 2351.67,3068.85 2350.5,3062.5C 2347.83,3062.5 2345.17,3062.5 2342.5,3062.5C 2341.64,3068.93 2340.31,3075.26 2338.5,3081.5C 2339.17,3082.5 2339.83,3083.5 2340.5,3084.5C 2337.83,3085.83 2335.17,3085.83 2332.5,3084.5C 2333.86,3082.97 2335.03,3081.3 2336,3079.5C 2339.82,3062.55 2343.32,3045.55 2346.5,3028.5 Z M 2346.5,3046.5 C 2345.33,3050.04 2344.66,3053.71 2344.5,3057.5C 2346.29,3057.79 2347.95,3057.45 2349.5,3056.5C 2348.49,3053.05 2347.49,3049.71 2346.5,3046.5 Z"/></g>
<g><path style="opacity:0.806" fill="#4d2f11" d="M 2410.5,3028.5 C 2415.48,3029.09 2420.48,3029.59 2425.5,3030C 2432.08,3038.95 2432.08,3047.95 2425.5,3057C 2422.3,3059.25 2420.14,3058.75 2419,3055.5C 2423.88,3053.04 2426.05,3049.04 2425.5,3043.5C 2426.06,3037.41 2423.4,3034.08 2417.5,3033.5C 2417.33,3049.5 2417.5,3065.5 2418,3081.5C 2419.02,3082.35 2419.86,3083.35 2420.5,3084.5C 2417.17,3085.83 2413.83,3085.83 2410.5,3084.5C 2412.11,3081.78 2412.94,3078.78 2413,3075.5C 2413.67,3064.17 2413.67,3052.83 2413,3041.5C 2412.85,3036.99 2412.02,3032.66 2410.5,3028.5 Z"/></g>
<g><path style="opacity:0.779" fill="#4d2f11" d="M 2446.5,3028.5 C 2449.78,3028.22 2452.94,3028.55 2456,3029.5C 2456.35,3030.67 2456.19,3031.84 2455.5,3033C 2457.81,3039.11 2459.97,3045.28 2462,3051.5C 2464.21,3045.05 2466.71,3038.71 2469.5,3032.5C 2468.75,3031.26 2468.42,3029.93 2468.5,3028.5C 2471.25,3028.19 2473.91,3028.52 2476.5,3029.5C 2473.94,3031.61 2472.11,3034.27 2471,3037.5C 2468.89,3043.84 2466.39,3050.01 2463.5,3056C 2466.86,3064.41 2470.02,3072.91 2473,3081.5C 2477.86,3084.28 2477.36,3085.62 2471.5,3085.5C 2469.83,3085.17 2468.17,3084.83 2466.5,3084.5C 2467.48,3082.9 2467.65,3081.24 2467,3079.5C 2465,3074.17 2463,3068.83 2461,3063.5C 2458.63,3069.74 2456.13,3075.91 2453.5,3082C 2454.36,3082.69 2455.02,3083.52 2455.5,3084.5C 2452.5,3085.83 2449.5,3085.83 2446.5,3084.5C 2447.76,3083.62 2448.93,3082.62 2450,3081.5C 2453.17,3073.83 2456.33,3066.17 2459.5,3058.5C 2456.57,3050.87 2453.73,3043.21 2451,3035.5C 2449.61,3032.97 2448.11,3030.64 2446.5,3028.5 Z"/></g>
<g><path style="opacity:0.779" fill="#4d2f11" d="M 2482.5,3028.5 C 2485.78,3028.22 2488.94,3028.55 2492,3029.5C 2492.35,3030.67 2492.19,3031.84 2491.5,3033C 2493.81,3039.11 2495.97,3045.28 2498,3051.5C 2500.21,3045.05 2502.71,3038.71 2505.5,3032.5C 2504.75,3031.26 2504.42,3029.93 2504.5,3028.5C 2507.25,3028.19 2509.91,3028.52 2512.5,3029.5C 2509.94,3031.61 2508.11,3034.27 2507,3037.5C 2504.89,3043.84 2502.39,3050.01 2499.5,3056C 2502.86,3064.41 2506.02,3072.91 2509,3081.5C 2513.86,3084.28 2513.36,3085.62 2507.5,3085.5C 2505.83,3085.17 2504.17,3084.83 2502.5,3084.5C 2503.48,3082.9 2503.65,3081.24 2503,3079.5C 2501,3074.17 2499,3068.83 2497,3063.5C 2494.63,3069.74 2492.13,3075.91 2489.5,3082C 2490.36,3082.69 2491.02,3083.52 2491.5,3084.5C 2488.5,3085.83 2485.5,3085.83 2482.5,3084.5C 2483.76,3083.62 2484.93,3082.62 2486,3081.5C 2489.17,3073.83 2492.33,3066.17 2495.5,3058.5C 2492.57,3050.87 2489.73,3043.21 2487,3035.5C 2485.61,3032.97 2484.11,3030.64 2482.5,3028.5 Z"/></g>
<g><path style="opacity:0.723" fill="#4d2f11" d="M 2526.5,3028.5 C 2527.8,3029.85 2527.63,3031.18 2526,3032.5C 2525.33,3049.17 2525.33,3065.83 2526,3082.5C 2526.69,3083.03 2527.19,3083.69 2527.5,3084.5C 2524.5,3085.83 2521.5,3085.83 2518.5,3084.5C 2518.81,3083.69 2519.31,3083.03 2520,3082.5C 2520.67,3065.83 2520.67,3049.17 2520,3032.5C 2519.31,3031.97 2518.81,3031.31 2518.5,3030.5C 2521.31,3029.83 2523.97,3029.17 2526.5,3028.5 Z"/></g>
<g><path style="opacity:0.774" fill="#4d2f11" d="M 2533.5,3028.5 C 2536.81,3028.06 2539.81,3028.73 2542.5,3030.5C 2542.01,3031.45 2541.68,3032.45 2541.5,3033.5C 2544.06,3045.15 2546.56,3056.82 2549,3068.5C 2551.46,3057.87 2553.79,3047.2 2556,3036.5C 2556.76,3034.23 2556.59,3032.06 2555.5,3030C 2558.02,3028.29 2560.68,3028.12 2563.5,3029.5C 2562.14,3031.03 2560.97,3032.7 2560,3034.5C 2556.48,3051.59 2552.65,3068.59 2548.5,3085.5C 2544.23,3068.98 2540.39,3052.31 2537,3035.5C 2536.01,3033.03 2534.84,3030.7 2533.5,3028.5 Z"/></g>
<g><path style="opacity:0.807" fill="#4d2f11" d="M 1913.5,3029.5 C 1916.85,3029.33 1920.18,3029.5 1923.5,3030C 1924.6,3032.4 1924.77,3034.9 1924,3037.5C 1920.52,3032.28 1917.19,3032.28 1914,3037.5C 1913.33,3040.5 1913.33,3043.5 1914,3046.5C 1916.27,3051.1 1918.94,3055.43 1922,3059.5C 1925.33,3067.17 1925.33,3074.83 1922,3082.5C 1917.91,3085.99 1913.41,3086.32 1908.5,3083.5C 1907.35,3080.89 1907.18,3078.23 1908,3075.5C 1914.37,3082.96 1918.87,3082.12 1921.5,3073C 1920.87,3069.63 1919.7,3066.47 1918,3063.5C 1908.53,3053.19 1907.03,3041.85 1913.5,3029.5 Z"/></g>
<g><path style="opacity:0.974" fill="#4d2f11" d="M 2126.5,3151.5 C 2161.08,3148.48 2192.42,3156.98 2220.5,3177C 2237.57,3189.89 2253.9,3203.73 2269.5,3218.5C 2282.47,3203.34 2298.8,3193.84 2318.5,3190C 2354.3,3183.16 2388.3,3188.16 2420.5,3205C 2433.67,3212.33 2442,3223.33 2445.5,3238C 2381.88,3348.75 2317.88,3459.25 2253.5,3569.5C 2176.46,3437.42 2100.46,3304.76 2025.5,3171.5C 2048.81,3166.34 2072.15,3161.17 2095.5,3156C 2105.97,3154.4 2116.3,3152.9 2126.5,3151.5 Z M 2135.5,3187.5 C 2154.34,3186.79 2172.01,3190.96 2188.5,3200C 2197.11,3205.61 2205.45,3211.61 2213.5,3218C 2228.91,3232.75 2244.91,3246.75 2261.5,3260C 2293.04,3283.18 2328.38,3296.52 2367.5,3300C 2365.29,3302.92 2363.45,3306.09 2362,3309.5C 2361.11,3310.08 2360.11,3310.41 2359,3310.5C 2335.31,3304.4 2311.98,3305.4 2289,3313.5C 2238.36,3258.11 2175.19,3230.28 2099.5,3230C 2092.79,3219.41 2086.45,3208.58 2080.5,3197.5C 2087.58,3194.98 2094.92,3193.15 2102.5,3192C 2113.59,3190.07 2124.59,3188.57 2135.5,3187.5 Z M 2338.5,3217.5 C 2355.4,3216.49 2371.73,3218.99 2387.5,3225C 2393.99,3227.73 2398.99,3232.06 2402.5,3238C 2398.34,3247.86 2392.84,3256.7 2386,3264.5C 2352.73,3264.69 2322.23,3255.69 2294.5,3237.5C 2298.27,3231.94 2303.27,3227.77 2309.5,3225C 2319.01,3221.37 2328.68,3218.87 2338.5,3217.5 Z M 2115.5,3257.5 C 2174.83,3261.17 2224.49,3284.67 2264.5,3328C 2254,3339.83 2242.83,3351 2231,3361.5C 2210.39,3334.11 2182.89,3318.78 2148.5,3315.5C 2137.44,3296.13 2126.44,3276.8 2115.5,3257.5 Z M 2315.5,3337.5 C 2325.27,3337.05 2334.93,3337.72 2344.5,3339.5C 2334.63,3356.75 2324.63,3373.92 2314.5,3391C 2298.83,3390.89 2284.83,3395.56 2272.5,3405C 2264.02,3413.15 2254.68,3420.15 2244.5,3426C 2234.93,3429.91 2225.1,3431.41 2215,3430.5C 2211.17,3424 2207.33,3417.5 2203.5,3411C 2223.25,3403.56 2241.25,3393.23 2257.5,3380C 2268.06,3368.53 2279.06,3357.53 2290.5,3347C 2298.29,3342.13 2306.63,3338.96 2315.5,3337.5 Z M 2167.5,3347.5 C 2183.82,3352.17 2196.82,3361.5 2206.5,3375.5C 2201.3,3377.96 2195.96,3380.12 2190.5,3382C 2189.06,3382.78 2187.72,3382.61 2186.5,3381.5C 2180.11,3370.13 2173.78,3358.8 2167.5,3347.5 Z M 2291.5,3430.5 C 2279.36,3452.77 2266.7,3474.77 2253.5,3496.5C 2246.12,3484.91 2239.12,3473.08 2232.5,3461C 2244.18,3459.33 2255.18,3455.66 2265.5,3450C 2274.63,3444.03 2283.29,3437.53 2291.5,3430.5 Z"/></g>
</svg>
